<svg xmlns="http://www.w3.org/2000/svg" xmlns:xlink="http://www.w3.org/1999/xlink" width="500" zoomAndPan="magnify" viewBox="0 0 375 374.999991" height="500" preserveAspectRatio="xMidYMid meet" version="1.0"><defs><g/><clipPath id="18451de736"><path d="M 114.28125 103 L 251 103 L 251 153 L 114.28125 153 Z M 114.28125 103 " clip-rule="nonzero"/></clipPath><clipPath id="25afe4a2d8"><path d="M 136 65.347656 L 209 65.347656 L 209 101 L 136 101 Z M 136 65.347656 " clip-rule="nonzero"/></clipPath><clipPath id="1f853f4ffa"><path d="M 114.28125 120 L 260.53125 120 L 260.53125 174 L 114.28125 174 Z M 114.28125 120 " clip-rule="nonzero"/></clipPath></defs><rect x="-37.5" width="450" fill="#ffffff" y="-37.499999" height="449.999989" fill-opacity="1"/><rect x="-37.5" width="450" fill="#ffffff" y="-37.499999" height="449.999989" fill-opacity="1"/><g clip-path="url(#18451de736)"><path fill="#0f0147" d="M 241.933594 114.65625 L 244.46875 117.9375 L 250.558594 103.113281 L 234.675781 105.253906 L 237.285156 108.636719 C 207.546875 128.476562 117.421875 167.570312 115.929688 128.476562 C 115.542969 130.394531 115.015625 132.949219 114.734375 134.882812 C 119.128906 176.972656 214.703125 131.832031 241.933594 114.65625 " fill-opacity="1" fill-rule="nonzero"/></g><path fill="#00adef" d="M 235.988281 96.914062 L 239.773438 101.210938 L 246.988281 79.8125 L 224.847656 84.265625 L 228.382812 88.273438 C 211.621094 104.300781 128.269531 142.054688 123.175781 114.824219 C 122.941406 113.558594 122.933594 112.328125 123.152344 110.4375 C 120 116.484375 119.9375 116.597656 118.613281 119.976562 C 119.339844 157.933594 215.941406 113.15625 235.988281 96.914062 " fill-opacity="1" fill-rule="nonzero"/><path fill="#0f0147" d="M 205.8125 92.140625 C 210.3125 89.472656 215.019531 86.285156 218.261719 83.804688 L 220.46875 86.308594 L 224.847656 73.320312 L 211.410156 76.019531 L 213.980469 78.9375 C 201.429688 91.863281 138.378906 120.308594 132.015625 104.023438 C 130.929688 101.246094 132.246094 98.222656 132.878906 96.769531 C 131.488281 98.460938 129.628906 100.710938 128.316406 102.460938 C 122.386719 126.261719 171.238281 112.605469 205.8125 92.140625 " fill-opacity="1" fill-rule="nonzero"/><g clip-path="url(#25afe4a2d8)"><path fill="#00adef" d="M 149.800781 100.496094 C 166.9375 98.0625 189.097656 86.289062 200.152344 78.628906 L 202.96875 81.832031 L 208.515625 65.390625 L 191.503906 68.808594 L 194.644531 72.378906 C 187.089844 80.480469 148.03125 98.445312 142.601562 92.042969 C 141.253906 90.453125 142.640625 87.433594 146.054688 84.535156 C 144.167969 86.050781 141.65625 88.074219 139.84375 89.675781 C 134.613281 96.3125 135.496094 102.53125 149.800781 100.496094 " fill-opacity="1" fill-rule="nonzero"/></g><path fill="#0f0147" d="M 152.859375 87.898438 C 162.78125 85.660156 174.910156 78.746094 181.546875 74.054688 L 183.753906 76.558594 L 187.160156 66.457031 L 176.707031 68.558594 L 178.824219 70.964844 C 173.613281 76.929688 147.011719 90.5 146.046875 84.894531 C 146.03125 84.789062 146.050781 84.644531 146.054688 84.535156 C 142.542969 89.992188 151.109375 88.296875 152.859375 87.898438 " fill-opacity="1" fill-rule="nonzero"/><g clip-path="url(#1f853f4ffa)"><path fill="#00adef" d="M 248.898438 135.417969 L 251.867188 139.644531 L 260.707031 120.636719 L 239.824219 122.484375 L 242.800781 126.722656 C 210.746094 147.382812 119.078125 184.507812 114.324219 143.996094 C 114.300781 143.8125 114.289062 143.570312 114.273438 143.386719 L 114.386719 145.785156 L 114.640625 148.617188 C 114.96875 150.820312 115.394531 153.761719 115.835938 155.945312 C 128.015625 197.871094 222.675781 152.933594 248.898438 135.417969 " fill-opacity="1" fill-rule="nonzero"/></g><path fill="#0f0147" d="M 245.785156 147.828125 C 215.976562 166.574219 135.171875 201.550781 119.332031 167.304688 L 120.957031 171.027344 L 123.226562 175.433594 C 131.15625 187.394531 147.699219 190.777344 172.394531 185.484375 C 203.34375 178.851562 235.945312 162.132812 249.5625 152.722656 L 252.515625 156.539062 L 258.601562 141.714844 L 242.71875 143.855469 L 245.785156 147.828125 " fill-opacity="1" fill-rule="nonzero"/><path fill="#00adef" d="M 241.480469 166.546875 C 213.375 183.632812 150.890625 208.394531 130.773438 186.339844 C 132.167969 187.941406 133.808594 189.863281 135.21875 191.226562 C 136.585938 192.480469 138.375 194.195312 139.796875 195.386719 C 166.339844 214.488281 226.269531 184.34375 245.429688 171.660156 L 248.222656 175.277344 L 254.3125 160.453125 L 238.429688 162.59375 L 241.480469 166.546875 " fill-opacity="1" fill-rule="nonzero"/><path fill="#0f0147" d="M 236.296875 183.375 C 216.03125 195.429688 173.269531 214.445312 149.570312 202.207031 L 154.21875 204.675781 L 157.621094 206.210938 C 183.253906 215.320312 223.242188 195.527344 238.089844 185.695312 L 240.132812 188.339844 L 243.628906 179.820312 L 234.5 181.050781 L 236.296875 183.375 " fill-opacity="1" fill-rule="nonzero"/><path fill="#00adef" d="M 222.355469 198.191406 C 207.773438 205.578125 186.25 213.328125 169.355469 209.992188 C 171.507812 210.402344 174.375 211.007812 176.550781 211.257812 C 178.949219 211.472656 182.148438 211.71875 184.554688 211.796875 C 200.691406 211.425781 215.226562 204.710938 223.558594 199.957031 L 224.925781 201.960938 L 227.945312 195.691406 L 221.003906 196.210938 L 222.355469 198.191406 " fill-opacity="1" fill-rule="nonzero"/><g fill="#00adef" fill-opacity="1"><g transform="translate(25.717885, 287.450093)"><g><path d="M 13.921875 0.34375 C 10.460938 0.34375 7.625 -0.4375 5.40625 -2 C 3.1875 -3.5625 2.078125 -5.757812 2.078125 -8.59375 C 2.078125 -8.882812 2.109375 -9.328125 2.171875 -9.921875 L 9.234375 -9.921875 C 9.097656 -8.535156 9.46875 -7.398438 10.34375 -6.515625 C 11.21875 -5.628906 12.492188 -5.1875 14.171875 -5.1875 C 15.847656 -5.1875 17.171875 -5.539062 18.140625 -6.25 C 19.117188 -6.957031 19.609375 -7.96875 19.609375 -9.28125 C 19.609375 -10.5 19.101562 -11.46875 18.09375 -12.1875 C 17.09375 -12.914062 15.519531 -13.722656 13.375 -14.609375 C 11.40625 -15.429688 9.800781 -16.1875 8.5625 -16.875 C 7.332031 -17.570312 6.28125 -18.535156 5.40625 -19.765625 C 4.53125 -21.003906 4.09375 -22.5625 4.09375 -24.4375 C 4.09375 -26.582031 4.644531 -28.441406 5.75 -30.015625 C 6.851562 -31.597656 8.367188 -32.816406 10.296875 -33.671875 C 12.222656 -34.523438 14.421875 -34.953125 16.890625 -34.953125 C 19.328125 -34.953125 21.441406 -34.546875 23.234375 -33.734375 C 25.023438 -32.929688 26.375 -31.789062 27.28125 -30.3125 C 28.1875 -28.832031 28.570312 -27.101562 28.4375 -25.125 L 21.078125 -25.125 L 21.125 -25.671875 C 21.125 -26.753906 20.722656 -27.640625 19.921875 -28.328125 C 19.117188 -29.023438 17.992188 -29.375 16.546875 -29.375 C 14.992188 -29.375 13.738281 -29.007812 12.78125 -28.28125 C 11.832031 -27.5625 11.359375 -26.578125 11.359375 -25.328125 C 11.359375 -24.503906 11.628906 -23.785156 12.171875 -23.171875 C 12.710938 -22.566406 13.378906 -22.039062 14.171875 -21.59375 C 14.960938 -21.15625 16.097656 -20.585938 17.578125 -19.890625 C 19.515625 -19.035156 21.109375 -18.226562 22.359375 -17.46875 C 23.617188 -16.71875 24.691406 -15.71875 25.578125 -14.46875 C 26.460938 -13.21875 26.90625 -11.6875 26.90625 -9.875 C 26.90625 -7.894531 26.367188 -6.128906 25.296875 -4.578125 C 24.234375 -3.035156 22.722656 -1.828125 20.765625 -0.953125 C 18.804688 -0.0859375 16.523438 0.34375 13.921875 0.34375 Z M 13.921875 0.34375 "/></g></g></g><g fill="#0f0147" fill-opacity="1"><g transform="translate(55.835071, 287.450093)"><g><path d="M 1.625 -13.78125 C 1.625 -16.539062 2.175781 -18.988281 3.28125 -21.125 C 4.382812 -23.269531 5.878906 -24.914062 7.765625 -26.0625 C 9.660156 -27.21875 11.78125 -27.796875 14.125 -27.796875 C 16.164062 -27.796875 17.953125 -27.382812 19.484375 -26.5625 C 21.015625 -25.738281 22.238281 -24.703125 23.15625 -23.453125 L 23.15625 -27.359375 L 30.125 -27.359375 L 30.125 0 L 23.15625 0 L 23.15625 -4 C 22.269531 -2.71875 21.046875 -1.65625 19.484375 -0.8125 C 17.921875 0.0195312 16.117188 0.4375 14.078125 0.4375 C 11.765625 0.4375 9.660156 -0.148438 7.765625 -1.328125 C 5.878906 -2.515625 4.382812 -4.1875 3.28125 -6.34375 C 2.175781 -8.5 1.625 -10.976562 1.625 -13.78125 Z M 23.15625 -13.671875 C 23.15625 -15.347656 22.828125 -16.785156 22.171875 -17.984375 C 21.515625 -19.191406 20.625 -20.113281 19.5 -20.75 C 18.382812 -21.394531 17.1875 -21.71875 15.90625 -21.71875 C 14.613281 -21.71875 13.425781 -21.40625 12.34375 -20.78125 C 11.257812 -20.15625 10.378906 -19.242188 9.703125 -18.046875 C 9.023438 -16.847656 8.6875 -15.425781 8.6875 -13.78125 C 8.6875 -12.132812 9.023438 -10.691406 9.703125 -9.453125 C 10.378906 -8.222656 11.265625 -7.273438 12.359375 -6.609375 C 13.460938 -5.953125 14.644531 -5.625 15.90625 -5.625 C 17.1875 -5.625 18.382812 -5.941406 19.5 -6.578125 C 20.625 -7.222656 21.515625 -8.144531 22.171875 -9.34375 C 22.828125 -10.550781 23.15625 -11.992188 23.15625 -13.671875 Z M 23.15625 -13.671875 "/></g></g></g><g fill="#0f0147" fill-opacity="1"><g transform="translate(89.308648, 287.450093)"><g><path d="M 10.3125 -36.53125 L 10.3125 0 L 3.40625 0 L 3.40625 -36.53125 Z M 10.3125 -36.53125 "/></g></g></g><g fill="#0f0147" fill-opacity="1"><g transform="translate(103.033798, 287.450093)"><g><path d="M 28.828125 -14.265625 C 28.828125 -13.273438 28.765625 -12.390625 28.640625 -11.609375 L 8.640625 -11.609375 C 8.804688 -9.628906 9.5 -8.078125 10.71875 -6.953125 C 11.9375 -5.835938 13.429688 -5.28125 15.203125 -5.28125 C 17.773438 -5.28125 19.601562 -6.382812 20.6875 -8.59375 L 28.140625 -8.59375 C 27.347656 -5.957031 25.832031 -3.789062 23.59375 -2.09375 C 21.363281 -0.40625 18.617188 0.4375 15.359375 0.4375 C 12.722656 0.4375 10.359375 -0.144531 8.265625 -1.3125 C 6.179688 -2.476562 4.550781 -4.128906 3.375 -6.265625 C 2.207031 -8.410156 1.625 -10.878906 1.625 -13.671875 C 1.625 -16.503906 2.195312 -18.988281 3.34375 -21.125 C 4.5 -23.269531 6.113281 -24.914062 8.1875 -26.0625 C 10.269531 -27.21875 12.660156 -27.796875 15.359375 -27.796875 C 17.953125 -27.796875 20.273438 -27.234375 22.328125 -26.109375 C 24.390625 -24.992188 25.988281 -23.40625 27.125 -21.34375 C 28.257812 -19.289062 28.828125 -16.929688 28.828125 -14.265625 Z M 21.671875 -16.25 C 21.640625 -18.019531 21 -19.441406 19.75 -20.515625 C 18.5 -21.585938 16.96875 -22.125 15.15625 -22.125 C 13.445312 -22.125 12.003906 -21.601562 10.828125 -20.5625 C 9.660156 -19.53125 8.945312 -18.09375 8.6875 -16.25 Z M 21.671875 -16.25 "/></g></g></g><g fill="#0f0147" fill-opacity="1"><g transform="translate(133.495737, 287.450093)"><g><path d="M 13.875 0.4375 C 11.632812 0.4375 9.625 0.0351562 7.84375 -0.765625 C 6.070312 -1.566406 4.664062 -2.660156 3.625 -4.046875 C 2.59375 -5.429688 2.023438 -6.960938 1.921875 -8.640625 L 8.890625 -8.640625 C 9.015625 -7.585938 9.53125 -6.710938 10.4375 -6.015625 C 11.34375 -5.328125 12.472656 -4.984375 13.828125 -4.984375 C 15.140625 -4.984375 16.164062 -5.242188 16.90625 -5.765625 C 17.644531 -6.296875 18.015625 -6.972656 18.015625 -7.796875 C 18.015625 -8.691406 17.5625 -9.359375 16.65625 -9.796875 C 15.757812 -10.242188 14.320312 -10.726562 12.34375 -11.25 C 10.300781 -11.75 8.628906 -12.257812 7.328125 -12.78125 C 6.023438 -13.3125 4.90625 -14.117188 3.96875 -15.203125 C 3.03125 -16.296875 2.5625 -17.765625 2.5625 -19.609375 C 2.5625 -21.117188 3 -22.5 3.875 -23.75 C 4.75 -25 6 -25.984375 7.625 -26.703125 C 9.257812 -27.429688 11.175781 -27.796875 13.375 -27.796875 C 16.632812 -27.796875 19.234375 -26.976562 21.171875 -25.34375 C 23.117188 -23.71875 24.191406 -21.523438 24.390625 -18.765625 L 17.78125 -18.765625 C 17.675781 -19.847656 17.21875 -20.707031 16.40625 -21.34375 C 15.601562 -21.988281 14.53125 -22.3125 13.1875 -22.3125 C 11.9375 -22.3125 10.972656 -22.082031 10.296875 -21.625 C 9.617188 -21.164062 9.28125 -20.523438 9.28125 -19.703125 C 9.28125 -18.773438 9.738281 -18.070312 10.65625 -17.59375 C 11.582031 -17.125 13.015625 -16.640625 14.953125 -16.140625 C 16.929688 -15.648438 18.5625 -15.140625 19.84375 -14.609375 C 21.132812 -14.085938 22.25 -13.273438 23.1875 -12.171875 C 24.125 -11.066406 24.609375 -9.609375 24.640625 -7.796875 C 24.640625 -6.222656 24.203125 -4.804688 23.328125 -3.546875 C 22.453125 -2.296875 21.203125 -1.316406 19.578125 -0.609375 C 17.953125 0.0859375 16.050781 0.4375 13.875 0.4375 Z M 13.875 0.4375 "/></g></g></g><g fill="#0f0147" fill-opacity="1"><g transform="translate(160.402969, 287.450093)"><g/></g></g><g fill="#00adef" fill-opacity="1"><g transform="translate(172.155376, 287.450093)"><g><path d="M 13.921875 0.34375 C 10.460938 0.34375 7.625 -0.4375 5.40625 -2 C 3.1875 -3.5625 2.078125 -5.757812 2.078125 -8.59375 C 2.078125 -8.882812 2.109375 -9.328125 2.171875 -9.921875 L 9.234375 -9.921875 C 9.097656 -8.535156 9.46875 -7.398438 10.34375 -6.515625 C 11.21875 -5.628906 12.492188 -5.1875 14.171875 -5.1875 C 15.847656 -5.1875 17.171875 -5.539062 18.140625 -6.25 C 19.117188 -6.957031 19.609375 -7.96875 19.609375 -9.28125 C 19.609375 -10.5 19.101562 -11.46875 18.09375 -12.1875 C 17.09375 -12.914062 15.519531 -13.722656 13.375 -14.609375 C 11.40625 -15.429688 9.800781 -16.1875 8.5625 -16.875 C 7.332031 -17.570312 6.28125 -18.535156 5.40625 -19.765625 C 4.53125 -21.003906 4.09375 -22.5625 4.09375 -24.4375 C 4.09375 -26.582031 4.644531 -28.441406 5.75 -30.015625 C 6.851562 -31.597656 8.367188 -32.816406 10.296875 -33.671875 C 12.222656 -34.523438 14.421875 -34.953125 16.890625 -34.953125 C 19.328125 -34.953125 21.441406 -34.546875 23.234375 -33.734375 C 25.023438 -32.929688 26.375 -31.789062 27.28125 -30.3125 C 28.1875 -28.832031 28.570312 -27.101562 28.4375 -25.125 L 21.078125 -25.125 L 21.125 -25.671875 C 21.125 -26.753906 20.722656 -27.640625 19.921875 -28.328125 C 19.117188 -29.023438 17.992188 -29.375 16.546875 -29.375 C 14.992188 -29.375 13.738281 -29.007812 12.78125 -28.28125 C 11.832031 -27.5625 11.359375 -26.578125 11.359375 -25.328125 C 11.359375 -24.503906 11.628906 -23.785156 12.171875 -23.171875 C 12.710938 -22.566406 13.378906 -22.039062 14.171875 -21.59375 C 14.960938 -21.15625 16.097656 -20.585938 17.578125 -19.890625 C 19.515625 -19.035156 21.109375 -18.226562 22.359375 -17.46875 C 23.617188 -16.71875 24.691406 -15.71875 25.578125 -14.46875 C 26.460938 -13.21875 26.90625 -11.6875 26.90625 -9.875 C 26.90625 -7.894531 26.367188 -6.128906 25.296875 -4.578125 C 24.234375 -3.035156 22.722656 -1.828125 20.765625 -0.953125 C 18.804688 -0.0859375 16.523438 0.34375 13.921875 0.34375 Z M 13.921875 0.34375 "/></g></g></g><g fill="#0f0147" fill-opacity="1"><g transform="translate(202.272561, 287.450093)"><g><path d="M 10.3125 -23.40625 C 11.207031 -24.65625 12.4375 -25.695312 14 -26.53125 C 15.5625 -27.375 17.347656 -27.796875 19.359375 -27.796875 C 21.691406 -27.796875 23.800781 -27.21875 25.6875 -26.0625 C 27.582031 -24.914062 29.082031 -23.28125 30.1875 -21.15625 C 31.289062 -19.03125 31.84375 -16.570312 31.84375 -13.78125 C 31.84375 -10.976562 31.289062 -8.5 30.1875 -6.34375 C 29.082031 -4.1875 27.582031 -2.515625 25.6875 -1.328125 C 23.800781 -0.148438 21.691406 0.4375 19.359375 0.4375 C 17.347656 0.4375 15.578125 0.0234375 14.046875 -0.796875 C 12.515625 -1.617188 11.269531 -2.65625 10.3125 -3.90625 L 10.3125 13.03125 L 3.40625 13.03125 L 3.40625 -27.359375 L 10.3125 -27.359375 Z M 24.78125 -13.78125 C 24.78125 -15.425781 24.441406 -16.847656 23.765625 -18.046875 C 23.097656 -19.242188 22.210938 -20.15625 21.109375 -20.78125 C 20.003906 -21.40625 18.8125 -21.71875 17.53125 -21.71875 C 16.28125 -21.71875 15.101562 -21.394531 14 -20.75 C 12.894531 -20.113281 12.003906 -19.1875 11.328125 -17.96875 C 10.648438 -16.75 10.3125 -15.316406 10.3125 -13.671875 C 10.3125 -12.023438 10.648438 -10.59375 11.328125 -9.375 C 12.003906 -8.15625 12.894531 -7.222656 14 -6.578125 C 15.101562 -5.941406 16.28125 -5.625 17.53125 -5.625 C 18.8125 -5.625 20.003906 -5.953125 21.109375 -6.609375 C 22.210938 -7.273438 23.097656 -8.210938 23.765625 -9.421875 C 24.441406 -10.640625 24.78125 -12.09375 24.78125 -13.78125 Z M 24.78125 -13.78125 "/></g></g></g><g fill="#0f0147" fill-opacity="1"><g transform="translate(235.746138, 287.450093)"><g><path d="M 18.8125 -27.75 C 20.882812 -27.75 22.726562 -27.296875 24.34375 -26.390625 C 25.957031 -25.484375 27.21875 -24.148438 28.125 -22.390625 C 29.03125 -20.628906 29.484375 -18.515625 29.484375 -16.046875 L 29.484375 0 L 22.5625 0 L 22.5625 -15.109375 C 22.5625 -17.285156 22.019531 -18.957031 20.9375 -20.125 C 19.851562 -21.289062 18.367188 -21.875 16.484375 -21.875 C 14.578125 -21.875 13.070312 -21.289062 11.96875 -20.125 C 10.863281 -18.957031 10.3125 -17.285156 10.3125 -15.109375 L 10.3125 0 L 3.40625 0 L 3.40625 -36.53125 L 10.3125 -36.53125 L 10.3125 -23.953125 C 11.207031 -25.128906 12.394531 -26.054688 13.875 -26.734375 C 15.351562 -27.410156 17 -27.75 18.8125 -27.75 Z M 18.8125 -27.75 "/></g></g></g><g fill="#0f0147" fill-opacity="1"><g transform="translate(268.380406, 287.450093)"><g><path d="M 28.828125 -14.265625 C 28.828125 -13.273438 28.765625 -12.390625 28.640625 -11.609375 L 8.640625 -11.609375 C 8.804688 -9.628906 9.5 -8.078125 10.71875 -6.953125 C 11.9375 -5.835938 13.429688 -5.28125 15.203125 -5.28125 C 17.773438 -5.28125 19.601562 -6.382812 20.6875 -8.59375 L 28.140625 -8.59375 C 27.347656 -5.957031 25.832031 -3.789062 23.59375 -2.09375 C 21.363281 -0.40625 18.617188 0.4375 15.359375 0.4375 C 12.722656 0.4375 10.359375 -0.144531 8.265625 -1.3125 C 6.179688 -2.476562 4.550781 -4.128906 3.375 -6.265625 C 2.207031 -8.410156 1.625 -10.878906 1.625 -13.671875 C 1.625 -16.503906 2.195312 -18.988281 3.34375 -21.125 C 4.5 -23.269531 6.113281 -24.914062 8.1875 -26.0625 C 10.269531 -27.21875 12.660156 -27.796875 15.359375 -27.796875 C 17.953125 -27.796875 20.273438 -27.234375 22.328125 -26.109375 C 24.390625 -24.992188 25.988281 -23.40625 27.125 -21.34375 C 28.257812 -19.289062 28.828125 -16.929688 28.828125 -14.265625 Z M 21.671875 -16.25 C 21.640625 -18.019531 21 -19.441406 19.75 -20.515625 C 18.5 -21.585938 16.96875 -22.125 15.15625 -22.125 C 13.445312 -22.125 12.003906 -21.601562 10.828125 -20.5625 C 9.660156 -19.53125 8.945312 -18.09375 8.6875 -16.25 Z M 21.671875 -16.25 "/></g></g></g><g fill="#0f0147" fill-opacity="1"><g transform="translate(298.842345, 287.450093)"><g><path d="M 10.3125 -23.109375 C 11.207031 -24.554688 12.367188 -25.691406 13.796875 -26.515625 C 15.234375 -27.335938 16.875 -27.75 18.71875 -27.75 L 18.71875 -20.484375 L 16.890625 -20.484375 C 14.710938 -20.484375 13.070312 -19.972656 11.96875 -18.953125 C 10.863281 -17.929688 10.3125 -16.15625 10.3125 -13.625 L 10.3125 0 L 3.40625 0 L 3.40625 -27.359375 L 10.3125 -27.359375 Z M 10.3125 -23.109375 "/></g></g></g><g fill="#0f0147" fill-opacity="1"><g transform="translate(318.788251, 287.450093)"><g><path d="M 28.828125 -14.265625 C 28.828125 -13.273438 28.765625 -12.390625 28.640625 -11.609375 L 8.640625 -11.609375 C 8.804688 -9.628906 9.5 -8.078125 10.71875 -6.953125 C 11.9375 -5.835938 13.429688 -5.28125 15.203125 -5.28125 C 17.773438 -5.28125 19.601562 -6.382812 20.6875 -8.59375 L 28.140625 -8.59375 C 27.347656 -5.957031 25.832031 -3.789062 23.59375 -2.09375 C 21.363281 -0.40625 18.617188 0.4375 15.359375 0.4375 C 12.722656 0.4375 10.359375 -0.144531 8.265625 -1.3125 C 6.179688 -2.476562 4.550781 -4.128906 3.375 -6.265625 C 2.207031 -8.410156 1.625 -10.878906 1.625 -13.671875 C 1.625 -16.503906 2.195312 -18.988281 3.34375 -21.125 C 4.5 -23.269531 6.113281 -24.914062 8.1875 -26.0625 C 10.269531 -27.21875 12.660156 -27.796875 15.359375 -27.796875 C 17.953125 -27.796875 20.273438 -27.234375 22.328125 -26.109375 C 24.390625 -24.992188 25.988281 -23.40625 27.125 -21.34375 C 28.257812 -19.289062 28.828125 -16.929688 28.828125 -14.265625 Z M 21.671875 -16.25 C 21.640625 -18.019531 21 -19.441406 19.75 -20.515625 C 18.5 -21.585938 16.96875 -22.125 15.15625 -22.125 C 13.445312 -22.125 12.003906 -21.601562 10.828125 -20.5625 C 9.660156 -19.53125 8.945312 -18.09375 8.6875 -16.25 Z M 21.671875 -16.25 "/></g></g></g></svg>